<?xml version="1.0" encoding="UTF-8" standalone="no"?>
<!DOCTYPE svg PUBLIC "-//W3C//DTD SVG 1.1//EN"
 "http://www.w3.org/Graphics/SVG/1.1/DTD/svg11.dtd">
<!-- Generated by graphviz version 2.40.1 (20161225.0304)
 -->
<!-- Title: foo Pages: 1 -->
<svg width="588pt" height="44pt"
 viewBox="0.00 0.00 587.81 44.00" xmlns="http://www.w3.org/2000/svg" xmlns:xlink="http://www.w3.org/1999/xlink">
<g id="graph0" class="graph" transform="scale(1 1) rotate(0) translate(4 40)">
<title>foo</title>
<polygon fill="#ffffff" stroke="transparent" points="-4,4 -4,-40 583.8072,-40 583.8072,4 -4,4"/>
<!-- Concept -->
<g id="node1" class="node">
<title>Concept</title>
<ellipse fill="none" stroke="#000000" cx="39.5778" cy="-18" rx="39.6558" ry="18"/>
<text text-anchor="middle" x="39.5778" y="-13.8" font-family="Times,serif" font-size="14.00" fill="#000000">Concept</text>
</g>
<!-- Design -->
<g id="node2" class="node">
<title>Design</title>
<ellipse fill="none" stroke="#000000" cx="150.3161" cy="-18" rx="35.3216" ry="18"/>
<text text-anchor="middle" x="150.3161" y="-13.8" font-family="Times,serif" font-size="14.00" fill="#000000">Design</text>
</g>
<!-- Concept&#45;&gt;Design -->
<g id="edge1" class="edge">
<title>Concept&#45;&gt;Design</title>
<path fill="none" stroke="#000000" d="M79.2441,-18C87.5389,-18 96.3463,-18 104.8334,-18"/>
<polygon fill="#000000" stroke="#000000" points="104.971,-21.5001 114.971,-18 104.971,-14.5001 104.971,-21.5001"/>
</g>
<!-- Engineering -->
<g id="node3" class="node">
<title>Engineering</title>
<ellipse fill="none" stroke="#000000" cx="274.8032" cy="-18" rx="53.1539" ry="18"/>
<text text-anchor="middle" x="274.8032" y="-13.8" font-family="Times,serif" font-size="14.00" fill="#000000">Engineering</text>
</g>
<!-- Design&#45;&gt;Engineering -->
<g id="edge2" class="edge">
<title>Design&#45;&gt;Engineering</title>
<path fill="none" stroke="#000000" d="M185.6561,-18C193.6126,-18 202.2954,-18 211.0185,-18"/>
<polygon fill="#000000" stroke="#000000" points="211.2362,-21.5001 221.2362,-18 211.2361,-14.5001 211.2362,-21.5001"/>
</g>
<!-- Testing -->
<g id="node4" class="node">
<title>Testing</title>
<ellipse fill="none" stroke="#000000" cx="400.1453" cy="-18" rx="36.0308" ry="18"/>
<text text-anchor="middle" x="400.1453" y="-13.8" font-family="Times,serif" font-size="14.00" fill="#000000">Testing</text>
</g>
<!-- Engineering&#45;&gt;Testing -->
<g id="edge3" class="edge">
<title>Engineering&#45;&gt;Testing</title>
<path fill="none" stroke="#000000" d="M328.3231,-18C336.7444,-18 345.3909,-18 353.6368,-18"/>
<polygon fill="#000000" stroke="#000000" points="353.8202,-21.5001 363.8202,-18 353.8201,-14.5001 353.8202,-21.5001"/>
</g>
<!-- Deployment -->
<g id="node5" class="node">
<title>Deployment</title>
<ellipse fill="none" stroke="#000000" cx="525.984" cy="-18" rx="53.6471" ry="18"/>
<text text-anchor="middle" x="525.984" y="-13.8" font-family="Times,serif" font-size="14.00" fill="#000000">Deployment</text>
</g>
<!-- Testing&#45;&gt;Deployment -->
<g id="edge4" class="edge">
<title>Testing&#45;&gt;Deployment</title>
<path fill="none" stroke="#000000" d="M436.2056,-18C444.3319,-18 453.1941,-18 462.0824,-18"/>
<polygon fill="#000000" stroke="#000000" points="462.0908,-21.5001 472.0908,-18 462.0908,-14.5001 462.0908,-21.5001"/>
</g>
</g>
</svg>
