<?xml version="1.0" encoding="UTF-8" standalone="no"?>
<!DOCTYPE svg PUBLIC "-//W3C//DTD SVG 1.1//EN"
 "http://www.w3.org/Graphics/SVG/1.1/DTD/svg11.dtd">
<!-- Generated by graphviz version 2.40.1 (20161225.0304)
 -->
<!-- Title: example Pages: 1 -->
<svg width="883pt" height="44pt"
 viewBox="0.00 0.00 882.95 44.00" xmlns="http://www.w3.org/2000/svg" xmlns:xlink="http://www.w3.org/1999/xlink">
<g id="graph0" class="graph" transform="scale(1 1) rotate(0) translate(4 40)">
<title>example</title>
<polygon fill="#ffffff" stroke="transparent" points="-4,4 -4,-40 878.9505,-40 878.9505,4 -4,4"/>
<!-- Concept -->
<g id="node1" class="node">
<title>Concept</title>
<ellipse fill="none" stroke="#000000" cx="39.5778" cy="-18" rx="39.6558" ry="18"/>
<text text-anchor="middle" x="39.5778" y="-13.8" font-family="Times,serif" font-size="14.00" fill="#000000">Concept</text>
</g>
<!-- Design -->
<g id="node2" class="node">
<title>Design</title>
<ellipse fill="none" stroke="#000000" cx="150.3161" cy="-18" rx="35.3216" ry="18"/>
<text text-anchor="middle" x="150.3161" y="-13.8" font-family="Times,serif" font-size="14.00" fill="#000000">Design</text>
</g>
<!-- Concept&#45;&gt;Design -->
<g id="edge1" class="edge">
<title>Concept&#45;&gt;Design</title>
<path fill="none" stroke="#000000" d="M79.2441,-18C87.5389,-18 96.3463,-18 104.8334,-18"/>
<polygon fill="#000000" stroke="#000000" points="104.971,-21.5001 114.971,-18 104.971,-14.5001 104.971,-21.5001"/>
</g>
<!-- Engineering -->
<g id="node3" class="node">
<title>Engineering</title>
<ellipse fill="none" stroke="#000000" cx="274.8032" cy="-18" rx="53.1539" ry="18"/>
<text text-anchor="middle" x="274.8032" y="-13.8" font-family="Times,serif" font-size="14.00" fill="#000000">Engineering</text>
</g>
<!-- Design&#45;&gt;Engineering -->
<g id="edge2" class="edge">
<title>Design&#45;&gt;Engineering</title>
<path fill="none" stroke="#000000" d="M185.6561,-18C193.6126,-18 202.2954,-18 211.0185,-18"/>
<polygon fill="#000000" stroke="#000000" points="211.2362,-21.5001 221.2362,-18 211.2361,-14.5001 211.2362,-21.5001"/>
</g>
<!-- Construction -->
<g id="node4" class="node">
<title>Construction</title>
<ellipse fill="none" stroke="#000000" cx="419.9265" cy="-18" rx="55.594" ry="18"/>
<text text-anchor="middle" x="419.9265" y="-13.8" font-family="Times,serif" font-size="14.00" fill="#000000">Construction</text>
</g>
<!-- Engineering&#45;&gt;Construction -->
<g id="edge3" class="edge">
<title>Engineering&#45;&gt;Construction</title>
<path fill="none" stroke="#000000" d="M328.4294,-18C336.6955,-18 345.314,-18 353.8136,-18"/>
<polygon fill="#000000" stroke="#000000" points="354.0905,-21.5001 364.0905,-18 354.0904,-14.5001 354.0905,-21.5001"/>
</g>
<!-- Testing -->
<g id="node5" class="node">
<title>Testing</title>
<ellipse fill="none" stroke="#000000" cx="547.7385" cy="-18" rx="36.0308" ry="18"/>
<text text-anchor="middle" x="547.7385" y="-13.8" font-family="Times,serif" font-size="14.00" fill="#000000">Testing</text>
</g>
<!-- Construction&#45;&gt;Testing -->
<g id="edge4" class="edge">
<title>Construction&#45;&gt;Testing</title>
<path fill="none" stroke="#000000" d="M475.9867,-18C484.4757,-18 493.1522,-18 501.4047,-18"/>
<polygon fill="#000000" stroke="#000000" points="501.5853,-21.5001 511.5853,-18 501.5852,-14.5001 501.5853,-21.5001"/>
</g>
<!-- Deployment -->
<g id="node6" class="node">
<title>Deployment</title>
<ellipse fill="none" stroke="#000000" cx="673.5772" cy="-18" rx="53.6471" ry="18"/>
<text text-anchor="middle" x="673.5772" y="-13.8" font-family="Times,serif" font-size="14.00" fill="#000000">Deployment</text>
</g>
<!-- Testing&#45;&gt;Deployment -->
<g id="edge5" class="edge">
<title>Testing&#45;&gt;Deployment</title>
<path fill="none" stroke="#000000" d="M583.7988,-18C591.9251,-18 600.7873,-18 609.6756,-18"/>
<polygon fill="#000000" stroke="#000000" points="609.6841,-21.5001 619.6841,-18 609.684,-14.5001 609.6841,-21.5001"/>
</g>
<!-- Maintenance -->
<g id="node7" class="node">
<title>Maintenance</title>
<ellipse fill="none" stroke="#000000" cx="819.1755" cy="-18" rx="55.551" ry="18"/>
<text text-anchor="middle" x="819.1755" y="-13.8" font-family="Times,serif" font-size="14.00" fill="#000000">Maintenance</text>
</g>
<!-- Deployment&#45;&gt;Maintenance -->
<g id="edge6" class="edge">
<title>Deployment&#45;&gt;Maintenance</title>
<path fill="none" stroke="#000000" d="M727.7926,-18C735.9548,-18 744.4509,-18 752.8321,-18"/>
<polygon fill="#000000" stroke="#000000" points="752.968,-21.5001 762.968,-18 752.968,-14.5001 752.968,-21.5001"/>
</g>
</g>
</svg>
